<?xml version="1.0" encoding="UTF-8"?>
<svg version="1.1" viewBox="0 0 1120 1120" width="280" height="280" xmlns="http://www.w3.org/2000/svg">
<path transform="translate(756,228)" d="m0 0 26 1 17 3 21 7 23 12 13 10 10 9 7 7 13 18 11 21 5 15 5 23 1 9 1 39-2 2-223 1 6 17 6 9 9 10 12 9 13 6 19 4h26l18-4 12-5 14-8 10-8 7-5 7 4 26 20 14 11 6 4-1 5-11 11-8 7-15 10-16 9-20 8-21 5-20 3-18 1-20-2-24-5-20-8-18-10-14-10-10-9-9-10-11-15-9-17-8-22-3-14-3-25 1-13 2-19 4-16 8-20 8-15 13-18 17-17 15-11 12-7 18-8 19-6 13-2zm-8 65-16 3-14 6-13 9-6 5-9 12-5 13-1 10h150l2-1-2-12-6-12-8-10-7-6-14-9-16-6-12-2z" fill="#0067B2"/>
<path transform="translate(296,228)" d="m0 0 24 1 20 4 19 8 14 8 15 14 11 14 8 16 7 21 4 25 1 16v165l-1 1h-76l-1-161-3-21-5-13-6-10-5-5-8-7-12-6-12-3h-26l-13 4-11 6-10 8-8 9-8 18-3 11-1 9-1 49v111l-1 1h-75l-1-7v-278l1-1h75l1 38 13-15 10-9 17-10 11-5 14-4 6-1z" fill="#0067B2"/>
<path transform="translate(419,603)" d="m0 0h48v169l17-17 15-11 19-10 16-6 13-3 9-1h31l19 3 18 6 17 8 11 7 10 8 12 11 10 12 8 13 8 16 5 13 5 22 2 14v29l-3 19-4 17-8 20-11 19-8 10-9 10-11 10-15 10-15 8-16 6-17 4-14 2h-25l-19-3-18-6-16-8-11-7-14-11-13-13 1 2v39l-5 1h-41l-1-1-1-229v-181zm141 163-15 2-14 4-16 8-11 7-7 6-9 11-8 11-9 19-4 14-2 17v19l3 20 5 15 8 15 13 16 8 8 11 7 16 8 13 4 18 3h9l15-2 17-5 17-8 9-7 10-9 10-13 6-12 7-21 2-11 1-14v-11l-2-20-3-12-7-19-9-14-9-10-11-10-15-8-15-5-17-3z" fill="#00C5FD"/>
<path transform="translate(238,721)" d="m0 0h11l20 2 18 4 16 6 17 10 14 12 10 13 9 16 5 11 6 23 2 16v180l-29 1h-16l-2-7v-38l-1-1-3 5-9 10-10 9-19 12-13 6-19 6-21 3h-30l-20-3-15-5-16-8-13-10-8-8-9-14-6-14-3-13v-23l4-17 8-16 9-11 8-7 13-8 16-7 15-4 21-4 9-1 112-1-5-29-5-15-7-12-5-6-12-9-13-6-13-4-6-1h-26l-21 5-19 8-15 9-13 10-4 4-5-1-7-9-9-11-6-7 1-5 14-12 15-10 19-10 22-8 27-5zm-25 163-19 3-18 6-14 9-4 5-4 9-2 8v16l4 13 6 9 8 7 12 7 14 5 7 1h26l15-3 19-7 16-10 11-9v-2h2l11-14 6-11 5-14 5-23v-5z" fill="#00C5FD"/>
<path transform="translate(460,123)" d="m0 0h74l1 1v111h55v63l-9 1h-45v119l2 12 4 9 6 7 9 4 12 2 20 1 1 1v69l-2 1h-20l-28-2-18-4-16-6-11-7-10-9-8-9-8-16-5-19-3-19-1-9z" fill="#0067B2"/>
<path transform="translate(855,722)" d="m0 0 27 1 25 4 24 8 24 12 14 10 7 6-1 6-10 15-9 15h-3l-22-15-16-8-15-6-19-5-6-1h-28l-17 4-12 5-11 8-7 9-4 9-1 14 3 11 4 6 8 7 14 6 15 3 21 2 19 1 37 5 15 4 17 7 11 7 8 7 8 11 5 10 3 10 1 8v24l-2 12-5 12-6 10-10 13-10 8-16 10-20 8-16 4-19 3-12 1h-18l-23-3-19-4-20-7-16-8-16-9-11-8-7-6 1-5 7-11 7-10 8-12 7 4 17 13 16 9 15 7 19 6 13 2h31l16-3 18-7 12-8 8-9 3-8 1-4v-17l-4-11-6-7-14-7-18-4-16-2-44-3-19-3-20-6-16-8-9-6-9-9-8-14-5-15-1-5v-26l5-17 7-14 8-10 12-12 15-9 15-7 17-5 14-2z" fill="#00C5FD"/>
<path transform="translate(948,100)" d="m0 0h76v420l-1 1h-75l-1-1v-419z" fill="#0067B2"/>
<path transform="translate(13,235)" d="m0 0h76v285l-1 1h-75z" fill="#0067B2"/>
<path transform="translate(11,603)" d="m0 0h49v411h-49l-1-142v-182z" fill="#00C3FB"/>
<path transform="translate(11,106)" d="m0 0h79l1 1v78l-7 1h-73l-1-27z" fill="#00C5FD"/>
<path transform="translate(1075,101)" d="m0 0h17l10 5 6 7 4 11v8l-3 9-6 8-7 5-7 2h-12l-7-2-10-9-4-9v-15l5-10 8-8zm2 4-9 5-5 7-2 5v13l3 6 6 7 11 4 10-1 8-5 6-9 1-3v-13l-5-8-7-6-5-2z" fill="#0074BC"/>
<path transform="translate(1075,112)" d="m0 0h16l5 5v8l-3 5h-2l3 8 2 5-3 1-3-1-5-8v-2l-5-2-1 12-5 1-1-1-1-19 1-10zm6 4-2 2v8l6 1 5-2 1-4-5-5z" fill="#0070B9"/>
<path transform="translate(1095,105)" d="m0 0 7 1 6 7 4 11v8l-3 9-6 8-7 5-7 2h-12l-2-2 3-1 8 1 6-1h-12l1-2 10-1 6-4h2l6-12v-13l-5-8-6-5z" fill="#0069B3"/>
<path transform="translate(1076,153)" d="m0 0 10 1 7-1v2l-4 1h-12l-2-2z" fill="#0067B2"/>
</svg>
