<?xml version="1.0" encoding="UTF-8"?>
<svg version="1.1" viewBox="0 0 2048 574" width="920" height="258" xmlns="http://www.w3.org/2000/svg">
<path transform="translate(0)" d="m0 0h2048v574h-2048z" fill="#F7F7F7"/>
<path transform="translate(208,80)" d="m0 0h33l16 2 21 5 16 6 19 9 18 12 11 9 11 10 7 8 10 12 11 18 8 16 7 18 5 22 2 18v26l-4 27-10 30-11 21-11 16-13 15-9 9-14 11-15 10-10 6-1 86h-49l-1-24v-45l-12 2-10 1h-13l-22-2-22-5-20-7-16-8-14-8-13-10-11-9v-2l-4-2-10-11-14-19-9-16-8-19-6-20-3-18-1-11v-23l3-24 5-19 8-21 11-20 10-14 8-9 7-8 12-11 15-11 15-9 17-8 18-6 23-5z" fill="#272627"/>
<path transform="translate(1391,129)" d="m0 0h11l9 3 8 7 11 24 18 42 18 41 8 18 3-4 11-26 18-41 21-49 6-9 6-4 8-2h9l10 3 6 5 8 16 19 44 12 28 15 34 3 6 15-34 11-26 14-32 13-30 5-8 9-5 4-1h11l11 4 7 8 12 27 15 35 18 41 8 20h2l15-35 20-46 17-39 4-7 6-5 8-3h12l9 3 5 4 8 15 45 104 19 44 6 14 1 4v8l-4 8-7 6-5 2h-12l-8-4-4-5-9-20-48-112-1-3-2-1-1 5-13 31-29 67-13 31-7 8-8 3h-9l-8-3-6-5-10-22-22-52-16-37-10-24v-2h-2l-3 9-13 30-23 54-17 40-6 8-7 4h-14l-6-3-7-8-11-25-17-40-27-63-2-5-2 2-13 31-11 25-13 31-13 30-7 16-8 7-5 2h-11l-10-5-6-9-15-35-23-54-15-35-2-7h-2l-3 9-11 26-15 35-16 37-11 26-4 6-5 4-4 2h-13l-8-4-6-7-1-3v-13l13-30 21-49 13-29 11-26 13-30 6-12 8-7z" fill="#272627"/>
<path transform="translate(215,142)" d="m0 0h20l18 3 18 6 15 8 14 10 8 7 9 11 7 10 10 21 4 13 2 13v29l-4 18-5 14-8 15-10 13-6 7h-2l-1-56-48 14-1 71-14 3-9 1h-15l-19-3-16-5-16-8-13-9-12-11-8-9-10-15-7-16-4-13-2-12v-30l4-18 6-16 6-11 8-11 9-10 8-8 13-9 15-8 18-6z" fill="#F7F7F7"/>
<path transform="translate(1182,125)" d="m0 0h29l21 5 16 7 14 9 14 12 11 14 8 14 5 12 3 9 2 11 1 20-2 16-4 16-6 14-10 16-14 15-13 10-18 10-16 5-17 3h-19l-18-3-17-6-15-8-12-9-13-13-9-12-9-19-5-16-2-15v-15l2-15 5-17 4-10 10-16 11-13 13-11 13-8 15-7 15-4z" fill="#272627"/>
<path transform="translate(682,132)" d="m0 0h41l6 13 13 30 20 45 14 32 16 36 11 25 9 21v2h-43l-10-23-9-21h-94l-15 33-6 11h-42l3-9 14-32 15-34 14-32 16-36 19-43z" fill="#272627"/>
<path transform="translate(426,131)" d="m0 0h36l4 1v163l70-1v-162l1-1h35l5 1v188l-3 9-8 7-3 1h-123l-8-4-5-7-1-3z" fill="#272627"/>
<path transform="translate(1037,124)" d="m0 0h20l18 3 15 5 12 6-1 4-12 22-6 10-15-6-9-2-16-1-13 2-14 5-13 9-8 8-7 10-5 11-3 12v23l4 14 7 13 9 11 8 6 15 8 16 4h17l16-4 9-3 14 26 5 9-12 6-20 6-8 1h-27l-18-4-15-6-14-8-10-8-6-5v-2h-2l-11-14-8-14-6-14-4-16-1-8v-16l3-21 6-17 8-15 10-13 13-13 15-10 17-8 19-5z" fill="#272627"/>
<path transform="translate(1190,165)" d="m0 0h16l15 4 14 7 10 9 7 7 8 14 4 13 1 5v19l-4 16-6 12-8 10-10 9-15 8-9 3-13 2-16-1-14-4-13-7-12-11-6-7-8-16-3-11-1-13 2-16 6-15 7-11 13-13 14-8 13-4z" fill="#F7F7F7"/>
<path transform="translate(829,131)" d="m0 0h32l7 1 1 162 68 1 7 10 18 30v2h-120l-6-3-6-7-2-6v-189z" fill="#272627"/>
<path transform="translate(1965,129)" d="m0 0h9l8 2 7 4 7 7 4 8 1 5v8l-4 11-7 9-10 5-4 1h-13l-10-4-7-6-5-8-1-3v-17l5-10 9-8 6-3z" fill="#F7F7F7"/>
<path transform="translate(701,185)" d="m0 0 3 1 12 27 19 43-1 2h-63l-1-2 18-41 9-20z" fill="#F7F7F7"/>
<path transform="translate(1965,129)" d="m0 0h9l8 2 7 4 7 7 4 8 1 5v8l-4 11-7 9-10 5-4 1h-13l-10-4-7-6-5-8-1-3v-17l5-10 9-8 6-3zm-1 5-9 4-6 7-4 10v8l3 9 8 9 10 4h9l9-4 6-5 4-8 1-5v-7l-3-10-7-8-5-3-4-1z" fill="#272627"/>
<path transform="translate(1959,142)" d="m0 0h19l5 3 1 2v8l-4 5-4 2 8 13-1 2-4-1-7-10-2-4-6-1v16h-5l-1-11v-23z" fill="#272627"/>
<path transform="translate(1963,146)" d="m0 0h12l4 3v6l-3 2h-12l-1-3z" fill="#F7F7F7"/>
</svg>
