<?xml version="1.0" encoding="UTF-8"?>
<svg version="1.1" viewBox="0 0 2048 1152" width="3840" height="2160" xmlns="http://www.w3.org/2000/svg">
<path transform="translate(1042,164)" d="m0 0h242v131l-43 1 12 20 16 26 14 23 13 21 32 52 17 28 26 42 17 28 55 1v128h-248v-130h40l-14-22-48-76-14-22-6 9-15 26-4 7h27v128h-272v-129h26l-16-25-11-17-3 3-68 112-5 8h45v126h-250v-126l55-1 15-25 16-26 17-28 14-23 16-26 34-56 13-21 12-20 11-18h-42v-126h241v126l-40 1 14 23 12 19 16 26 13 21 7-10 12-20 15-24 16-26 6-10h-38z" fill="#841F32"/>
<path transform="translate(1177,818)" d="m0 0h29l5 12 23 61 9 24v2h2l1-6 18-48 17-45h29v3l-9 3-4 5-1 2v93l3 9 3 3 8 2v3h-44v-3l10-3 4-8v-88l-15 41-11 29-12 32h-5l-18-49-19-51v84l3 8 4 3 7 2v3h-38l1-3 11-3 2-5 1-3v-96l-3-6-7-3-4-1z" fill="#343334"/>
<path transform="translate(53,818)" d="m0 0h45v2l-10 3-4 5v83l4 10 5 6 8 5 6 2h18l10-4 6-5 5-8 2-6v-61l-1-19-3-6-7-3-4-1v-3h38l-1 3-8 2-5 5-1 2-1 82-4 11-7 9-8 6-10 4-4 1h-20l-12-4-8-6-8-9-4-10-1-4-1-77-3-7-4-3-8-2z" fill="#313031"/>
<path transform="translate(518,848)" d="m0 0h44l13 4 6 5 4 7 1 5v8l-4 10-8 7-5 2h-4l4 7 14 19 10 13 8 4v2h-21l-12-16-13-19-5-7-7-1 1 33 2 4 8 3v3h-36v-3l8-3 3-5v-71l-3-5-8-3zm30 5-4 2-1 2v36h9l11-3 8-7 2-7v-8l-3-7-4-5-7-3z" fill="#303030"/>
<path transform="translate(1481,848)" d="m0 0h21l14 19 13 18 14 19 6 8v-52l-3-5-7-3-1-3 1-1h30v3l-9 3-2 6-1 82h-3l-10-13-42-57-2-3v61l2 4 5 3 4 1v3h-30v-3l7-3 3-4 1-4v-68l-4-5-7-3z" fill="#302F30"/>
<path transform="translate(1377,848)" d="m0 0h22l10 14 13 18 14 19 9 13 2 1-1-52-3-6-8-4v-3h30l-1 4-7 3-3 6-1 82-4-2-13-18-12-16-28-38v60l3 5 5 3 3 1v3h-30v-3l8-3 3-7v-70l-6-5-5-2z" fill="#313031"/>
<path transform="translate(173,848)" d="m0 0h20l7 8 12 17 14 19 13 18 2 3v-54l-4-5-6-3v-3h29l1 3-9 4-2 4-1 8-1 76-3-1-10-14-12-16-28-38-3-4-1 57 3 7 5 3 3 1v3h-29v-3l7-3 3-5 1-7v-63l-5-6-6-2z" fill="#323132"/>
<path transform="translate(999,846)" d="m0 0 13 1 10 4 10 8 7 11 3 8 2 10v13l-4 16-5 9-7 8-10 6-11 3h-10l-13-4-11-8-7-10-4-10-2-14 1-14 4-13 7-10 7-7 13-6zm-4 6-9 5-7 10-3 9-1 7v23l3 13 6 10 7 6 5 2h13l6-3 5-5 5-7 4-14v-27l-3-12-6-10-8-6-3-1z" fill="#333233"/>
<path transform="translate(1782,846)" d="m0 0h10l13 4 10 7 8 11 4 10 2 18-2 15-5 12-8 10-11 7-12 3h-8l-12-3-11-7-8-10-5-12-2-12 1-17 4-12 7-11 10-8 10-4zm3 5-10 3-6 5-5 8-3 9-1 6v25l3 12 6 10 7 6 6 2h11l8-4 7-8 4-9 2-9 1-13-2-18-4-11-7-9-8-4z" fill="#333"/>
<path transform="translate(1582,848)" d="m0 0h67l1 21h-4l-3-8-6-5-3-1h-26l-1 1-1 33 24-1 6-4 3-8h3v33h-3l-3-8-3-3-3-1-24-1 1 36 2 2h26l10-5 5-6 3-6h3l-1 9-4 15h-69v-3l8-3 2-3v-75l-1-3-9-2z" fill="#302F30"/>
<path transform="translate(432,848)" d="m0 0h67l1 20h-4l-3-8-5-4-2-1h-28l-1 1-1 33 24-1 5-3 3-5 1-4h3v32l-3 1-4-9-5-3-24-1 1 38h28l10-5 4-5 3-7 4-1-1 9-4 15-1 1h-68v-3l7-3 3-4v-74l-4-4-6-2z" fill="#302F30"/>
<path transform="translate(1057,848)" d="m0 0h67l1 1v20h-3l-3-8-5-5-2-1h-29l-1 1-1 33 24-1 5-3 3-9h3v33l-3-1-3-7-5-4-24-1 1 35 4 5 7 2v3h-36v-3l9-3 1-4v-73l-1-4-9-3z" fill="#2F2E2F"/>
<path transform="translate(1948,847)" d="m0 0h4l14 36 14 35 5 13 5 5 5 2v3h-33v-3l6-3 1-6-6-16v-2h-33l-1 6-4 10 1 9 6 2v3h-26v-3l8-5 10-25 19-49zm-3 21-13 35 1 2h27l-3-10-10-27z" fill="#323132"/>
<path transform="translate(827,848)" d="m0 0h37v3l-7 3-1 3 3 7 15 26 4-5 15-26-1-5-7-3v-3h29l-1 4-8 4-4 5-19 32-3 5v34l5 5 7 1v3h-39v-3l7-1 4-4 1-2v-32l-11-17-12-19-5-7-9-4z" fill="#313031"/>
<path transform="translate(1693,846)" d="m0 0h10l10 3h7l1-3h3l2 21v10h-3l-8-16-7-6-8-2-7 1-5 5-1 6 3 9 6 7 21 14 7 8 4 13-2 11-6 9-7 5-6 2h-9l-13-3h-5l-2 3-3-1-3-24v-6l4 1 7 14 8 7 4 2h11l5-3 3-3 1-3v-11l-5-8-11-8-14-10-6-7-3-8v-11l3-8 5-5 6-4z" fill="#323132"/>
<path transform="translate(635,846)" d="m0 0h8l10 3h6l2-3h4l2 20v11l-4-1-7-14-5-5-5-3-8-1-7 3-3 5 1 10 6 9 14 9 11 8 6 9 2 6v11l-4 9-7 7-9 4h-9l-11-3h-5l-3 4h-3l-2-10-2-16v-6l4 1 7 14 5 5 7 4h12l5-2 2-4 1-3v-10l-4-8-11-8-14-10-5-5-4-6-1-3v-14l3-7 4-5 7-4z" fill="#333233"/>
<path transform="translate(332,848)" d="m0 0h34l1 3-8 2v10l17 40 5 12 2-3 13-36 5-14v-6l-2-3-6-2 1-3h25v4l-6 3-3 4-9 26-13 36-8 21h-3l-10-23-18-44-8-19-9-5z" fill="#323132"/>
<path transform="translate(742,848)" d="m0 0h71l1 5v19h-3l-4-11-5-4-9-2-9-1 1 76 3 5 3 2 5 1v3h-37v-3l7-2 3-3 1-3 1-76-15 2-6 3-4 6-2 7h-3v-23z" fill="#302F30"/>
<path transform="translate(1840,848)" d="m0 0h71l1 6v18h-3l-4-11-4-4-8-2-11-1 1 76 3 5 8 3v3h-37v-3l9-3 2-3 1-78-15 2-6 3-4 8-2 5-3-1z" fill="#302F30"/>
<path transform="translate(1320,848)" d="m0 0h38v3l-8 3-3 4v73l4 5 7 2v3h-38v-3l9-3 3-6v-68l-2-5-3-3-7-2z" fill="#302F30"/>
<path transform="translate(280,848)" d="m0 0h37v3l-9 4-2 4v71l3 5 8 3v3h-37v-3l8-3 3-5v-71l-3-5-8-3z" fill="#2F2E2F"/>
<path transform="translate(691,848)" d="m0 0h37v3l-10 3-2 6v69l3 6 3 2 6 1v3h-37v-3l8-3 3-5v-70l-2-6-9-3z" fill="#302F30"/>
<path transform="translate(1514,617)" d="m0 0h13l10 5 8 9 2 5 1 11-3 10-7 9-9 5-5 1h-8l-11-4-6-5-5-9-1-3v-14l5-10 8-7zm2 3-8 3-7 8-2 6v10l4 10 7 6 6 2h8l9-4 5-6 2-5 1-11-3-9-5-6-5-3-4-1z" fill="#862436"/>
<path transform="translate(1512,630)" d="m0 0h13l5 2 2 4-1 5-3 4 3 3 2 10h-7l-3-9-7-2v11h-6v-27zm4 5v8h6l3-2-1-5-1-1z" fill="#852133"/>
</svg>
